<svg width="243" height="73" viewBox="0 0 243 73" fill="none" xmlns="http://www.w3.org/2000/svg">
<path d="M23.9393 58.1444C23.9393 59.4223 24.5951 61.0197 25.7429 62.2976C26.8907 63.5755 28.6943 64.5339 31.6457 64.6937C31.8097 64.6937 32.1377 64.6937 32.3016 64.6937C36.0729 64.6937 40.9919 62.9365 45.419 60.0613C44.1073 58.3042 43.4514 56.2276 43.4514 53.9912C43.4514 48.2407 48.2065 43.6083 54.1093 43.6083C55.749 43.6083 57.3887 43.9278 58.8644 44.7265C59.3563 43.2888 59.6842 41.8512 59.6842 40.733C59.6842 38.4967 59.0283 36.7396 57.7166 35.6214C56.4049 34.3435 54.6012 33.5449 51.9777 33.5449C45.9109 33.5449 38.6964 37.2188 33.2854 42.1707C27.7105 47.1225 24.1032 53.512 24.1032 57.8249C23.9393 57.8249 23.9393 57.9847 23.9393 58.1444ZM0 72.8403H90.8381L45.419 0L0 72.8403ZM51.9777 29.7112C55.585 29.7112 58.5364 30.8293 60.5041 32.9059C62.6356 34.9825 63.6194 37.698 63.6194 40.733C63.6194 42.8096 63.1275 45.046 62.1437 47.2823C63.7834 49.0394 64.7672 51.4355 64.7672 54.151C64.7672 59.9015 60.0121 64.5339 54.1093 64.5339C51.9777 64.5339 50.0101 63.895 48.3704 62.9365C48.3704 62.9365 48.2065 62.9365 48.2065 63.0963C43.1235 66.6105 37.3846 68.8468 32.3016 68.8468C31.9737 68.8468 31.8097 68.8468 31.4818 68.8468C27.5466 68.6871 24.7591 67.0897 22.7915 65.1729C20.9879 63.0963 20.004 60.7002 20.004 58.6236C20.004 58.4639 20.004 58.3042 20.004 58.1444C20.004 51.9147 24.4312 45.2057 30.498 39.7746C36.4008 33.8643 44.2713 29.7112 51.9777 29.7112C51.8138 29.7112 51.8138 29.7112 51.9777 29.7112ZM234.966 38.1772C232.998 38.1772 231.194 38.8162 229.883 39.9344C229.391 40.4136 228.735 41.0525 228.243 41.6915C227.423 42.9694 223.324 48.4004 219.553 53.6718C215.781 58.9431 212.174 63.7352 212.174 63.7352C211.518 64.6937 211.026 65.8118 211.026 67.0897C211.026 70.2845 213.65 72.8403 216.929 72.8403H229.227C229.391 72.8403 229.391 72.8403 229.555 72.6805C229.555 72.6805 229.719 72.5208 229.719 72.3611V66.1313C229.719 65.9716 229.719 65.9716 229.555 65.8118C229.391 65.8118 229.391 65.6521 229.227 65.6521H222.832L232.834 51.7549V72.3611C232.834 72.5208 232.834 72.5208 232.998 72.6805C232.998 72.6805 233.162 72.8403 233.326 72.8403H242.508C242.672 72.8403 242.672 72.8403 242.836 72.6805C242.836 72.6805 243 72.5208 243 72.3611V46.0044C242.836 41.6915 239.229 38.1772 234.966 38.1772ZM217.585 45.8446C217.585 45.8446 217.749 45.6849 217.749 45.5252V39.2954C217.749 39.1357 217.585 38.8162 217.257 38.8162H187.415C187.251 38.8162 187.251 38.8162 187.087 38.9759C187.087 38.9759 186.923 39.1357 186.923 39.2954V45.6849C186.923 45.8446 186.923 45.8446 187.087 46.0044C187.087 46.0044 187.251 46.1641 187.415 46.1641H197.417V72.5208C197.417 72.6805 197.417 72.6805 197.581 72.8403C197.581 72.8403 197.745 73 197.909 73C199.713 73 204.796 73 205.451 73C205.779 73 206.271 72.8403 206.599 72.5208C206.927 72.2013 207.255 71.7221 207.255 71.0832V46.1641V46.0044H217.257C217.421 46.0044 217.421 45.8446 217.585 45.8446ZM163.968 38.8162H135.273C135.109 38.8162 135.109 38.8162 134.945 38.9759C134.945 38.9759 134.781 39.1357 134.781 39.2954V69.0066C134.781 70.2845 135.437 71.2429 136.257 71.8818C137.077 72.5208 138.225 73 139.045 73H162.328C162.82 73 163.312 72.6805 163.64 72.3611C163.804 72.2013 163.968 72.0416 163.968 71.8818L164.132 71.7221C164.132 71.7221 164.132 71.5624 164.132 71.4026V66.291C164.132 66.1313 164.132 66.1313 163.968 65.9715C163.968 65.9715 163.804 65.8118 163.64 65.8118H145.111V58.4639H161.344C161.508 58.4639 161.508 58.4639 161.672 58.3042C161.672 58.3042 161.836 58.1444 161.836 57.9847V51.7549C161.836 51.5952 161.836 51.5952 161.672 51.4355C161.672 51.4355 161.508 51.2757 161.344 51.2757H145.111V46.1641H163.968C164.132 46.1641 164.132 46.1641 164.296 46.0044C164.296 46.0044 164.46 45.8446 164.46 45.6849V39.2954C164.46 39.1357 164.46 39.1357 164.296 38.9759C164.132 38.8162 164.132 38.8162 163.968 38.8162ZM194.466 66.291C194.466 66.1313 194.466 66.1313 194.302 65.9715C194.302 65.9715 194.138 65.8118 193.974 65.8118H177.413V39.2954C177.413 39.1357 177.413 39.1357 177.249 38.9759C177.249 38.9759 177.085 38.8162 176.921 38.8162H167.903C167.739 38.8162 167.411 38.9759 167.411 39.2954V68.6871C167.411 70.1247 168.067 71.2429 168.887 71.8818C169.706 72.5208 170.854 72.8403 171.51 72.8403H192.498C192.99 72.8403 193.318 72.5208 193.646 72.2013C193.974 71.8818 194.138 71.4026 194.138 71.0832C194.466 70.4442 194.466 67.5689 194.466 66.291ZM124.615 53.6718C120.844 48.4004 116.909 42.9694 115.925 41.6915C115.433 41.0525 114.777 40.2538 114.285 39.9344C112.974 38.8162 111.17 38.1772 109.202 38.1772C104.775 38.1772 101.332 41.6915 101.332 45.8446V57.6652C101.332 63.7352 101.332 70.4442 101.332 72.3611C101.332 72.5208 101.332 72.5208 101.496 72.6805C101.496 72.6805 101.66 72.8403 101.824 72.8403H111.006C111.17 72.8403 111.17 72.8403 111.334 72.6805C111.334 72.6805 111.498 72.5208 111.498 72.3611V51.9147L121.5 65.8118H114.777C114.613 65.8118 114.613 65.8118 114.449 65.9715C114.449 65.9715 114.285 66.1313 114.285 66.291V72.5208C114.285 72.6805 114.285 72.6805 114.449 72.8403C114.449 72.8403 114.613 73 114.777 73H127.075C130.354 73 132.978 70.4442 132.978 67.2495C132.978 65.9715 132.65 64.8534 131.83 63.895C131.994 63.7352 128.387 58.9431 124.615 53.6718Z" fill="#0087DC"/>
</svg>
